# xmcd
#
# Track frame offsets:
#	150
#	15050
#	27617
#	42129
#	50826
#	63812
#	76753
#	89363
#	101309
#	115809
#	127561
#	138698
#	149000
#	160011
#	169055
#	184997
#	199823
#	213195
#	226585
#	237775
#	251674
#	264934
#	277146
#	291793
#	306413
#	318653
#	330354
#	341910
#
# Disc length: 4712 seconds
#
# Revision: 0
# Processed by: cddbd v1.5.2PL0 Copyright (c) Steve Scherf et al.
# Submitted via: dBpowerAMP V4.0
#
DISCID=8a12661c
DTITLE=Nat King Cole - World of Nat King Cole
DYEAR=1900
DGENRE=Blues
TTITLE0=Smile
TTITLE1=It's Only a Paper Moon
TTITLE2=Straighten Up and Fly Right
TTITLE3=(Get Your Kicks On) Route 66
TTITLE4=(I Love You) For Sentimental Reasons
TTITLE5=Nature Boy
TTITLE6=Too Young
TTITLE7=Unforgettable
TTITLE8=Walkin' My Baby Back Home
TTITLE9=Orange Colored Sky
TTITLE10=Send For Me
TTITLE11=A Blossom Fell
TTITLE12=Quizas, Quizas, Quizas (Perhaps x3)
TTITLE13=On The Street Where You Live
TTITLE14=Almost Like Being In Love
TTITLE15=Darling, Je Vous Aime Beaucoup
TTITLE16=Mona Lisa
TTITLE17=Ramblin' Rose
TTITLE18=Let There Be Love
TTITLE19=L-O-V-E
TTITLE20=You Stepped Out of a Dream
TTITLE21=Just One of Those Things
TTITLE22=Let's Face The Music and Dance
TTITLE23=Day In- Day Out
TTITLE24=Thou Swell (live at The Sands, 1965)
TTITLE25=When I Fall In Love
TTITLE26=Unforgettable (virtual duet w/ Natalie Cole)
TTITLE27=Stardust
EXTD=
EXTT0=
EXTT1=
EXTT2=
EXTT3=
EXTT4=
EXTT5=
EXTT6=
EXTT7=
EXTT8=
EXTT9=
EXTT10=
EXTT11=
EXTT12=
EXTT13=
EXTT14=
EXTT15=
EXTT16=
EXTT17=
EXTT18=
EXTT19=
EXTT20=
EXTT21=
EXTT22=
EXTT23=
EXTT24=
EXTT25=
EXTT26=
EXTT27=
PLAYORDER=
